/* XPM */
static const char *find_previous_xpm[] = {
/* columns rows colors chars-per-pixel */
"16 16 138 2",
"#  c #FCFEFD",
"o  c #697585",
"6. c #DDC94C",
"e. c #2F3662",
"D  c #363466",
"%. c #060354",
"G  c #ABD7FE",
"h  c #E6EBE7",
"q  c #E1E4DD",
"m  c #2F3362",
"|  c #D2990C",
"7. c #CB9807",
"7  c #F5F7F6",
"l  c #D5DCD5",
"o. c #6B8AFE",
"u  c #E4EBE3",
";  c #FFFFFD",
"p. c #35322B",
"$. c #6B8AFF",
"$  c #FFFFFF",
"a  c #CEDBD1",
"s. c #5C78F5",
"h. c #9E9E9E",
"q. c #5C78F6",
"'  c #A7D7FB",
"W  c #323465",
"F  c #020355",
"5  c #FDFFFE",
"[  c #000958",
",  c #F8F8F8",
"w. c #392C61",
"I  c #7D4900",
"V  c #BDC9BF",
">. c #353865",
"Y  c #050752",
"Z  c #ACBDAD",
"-. c #CC9902",
"c  c #BBCCBC",
"O  c #6A7086",
"^  c #7B4900",
"+  c #A19CA2",
"]  c #AAD5FF",
".  c #6D7486",
"r. c #333566",
"9. c #47456C",
"O. c #6A8BFF",
"3  c #9F9FA7",
"i. c #DAC74E",
"P  c #313564",
"p  c #D9DBD6",
"y  c #EDEEE9",
",. c #5B76F7",
" . c #7E4704",
"u. c #392E2C",
"@  c #707287",
"1. c #5979F4",
"X. c #545486",
"J  c #ABBEAB",
"8  c #F0F5F1",
"k. c #2F3569",
"S  c #A0A09E",
"n  c #A0A0A0",
"T  c #A9D9FF",
"~  c #CB9705",
"v  c #FFFEFC",
"8. c #A09DA6",
"C  c #B3C6B2",
"0  c #E2EDE5",
"-  c #717388",
"B  c #000857",
"f. c #A39EA5",
"_  c #ACD7FF",
"z  c #CCD7CF",
"t. c #353767",
"j  c #E0E7DF",
">  c #FBFBF9",
"5. c #D5C846",
"g  c #6F7084",
"2  c #303064",
"6  c #FBFBFB",
"R  c #AAD7FE",
"`  c #AAD7FF",
"/  c #A19EA5",
"X  c #6D7687",
"3. c #A19EA7",
":. c #A19BA5",
"b  c #333767",
"t  c #EFF0EB",
"g. c #804906",
"d  c #333464",
"j. c #2C3667",
"s  c #FEFFFF",
"L  c #FEFCFF",
"}  c #D8C94C",
"<. c #5B78F6",
"0. c #5B78F8",
"N  c #3B3C6C",
")  c #ABD8FF",
"f  c #A29FA6",
"&. c #392D2F",
"M  c #D0DCD2",
"r  c #F5F8F1",
"!  c #3C435F",
"{  c #DDC44E",
"<  c #F0F4F5",
"H  c #343563",
".. c #A09FA5",
"=. c #DBC74C",
"K  c #A4B9A8",
"@. c #6B88FD",
"x  c #C4D1C7",
":  c #FFFDFE",
"w  c #FFFDFF",
"Q  c #323568",
"   c None",
"i  c #DDE5DA",
"E  c #323266",
"*. c #D7CA4A",
"1  c #ECF1EB",
"y. c #A39DA7",
"9  c #ECEEEB",
"a. c #353666",
"#. c #6C89FF",
"d. c #35306A",
"4  c #6D7288",
"e  c #333365",
"&  c #FEFEFC",
"+. c #6A89FE",
"%  c #FEFEFE",
"A  c #333369",
"*  c #33336F",
"=  c #A2A4A3",
";. c #7E4800",
"2. c #5B77F4",
"(  c #211A68",
"k  c #D7E2DA",
"U  c #9DA0A9",
"4. c #342E32",
/* pixels */
"        . X o O                 ",
"    + @ # $ % & * =             ",
"    - ; : > , < 1 2 3           ",
"  4 5 6 7 8 9 0 q w e           ",
"  X r t y u i p a s d f         ",
"  g h j k l z x c v b n         ",
"  m & M N B V C Z w A S         ",
"    D F G H J K L P I U         ",
"    Y T R E W e Q ! ~ ^ /       ",
"  ( ) G _ ` ' ] [ { } |  ...    ",
"X.o.O.+.@.#.+.$.%.&.*.=.-.;.:.  ",
"  >.,.<.1.<.2.<.Y 3.4.5.6.7.8.  ",
"    9.0.q.w.e.r.t.  y.u.i.p.n   ",
"      a.s.d.          f.g.h.    ",
"        j.k.                    ",
"                                "
};
