/* XPM */
static char * find_previous_xpm[] = {
"16 16 98 2",
"  	c None",
". 	c #6C7487",
"+ 	c #6D7487",
"@ 	c #6B7187",
"# 	c #9F9CA3",
"$ 	c #6E7386",
"% 	c #FFFFFF",
"& 	c #FDFEFD",
"* 	c #32346F",
"= 	c #A1A3A2",
"- 	c #6F748A",
"; 	c #FBFCFC",
"> 	c #F8F9F8",
", 	c #F2F6F3",
"' 	c #EDF1EE",
") 	c #303262",
"! 	c #9F9EA3",
"~ 	c #6E7387",
"{ 	c #FEFEFE",
"] 	c #FAFBFB",
"^ 	c #F6F8F7",
"/ 	c #F1F4F1",
"( 	c #EBEFEC",
"_ 	c #E5EBE6",
": 	c #DFE6E0",
"< 	c #353267",
"[ 	c #6D7588",
"} 	c #F4F7F4",
"| 	c #EFF2EF",
"1 	c #E9EEEA",
"2 	c #E3EAE3",
"3 	c #DCE4DD",
"4 	c #D5DED6",
"5 	c #CED9D0",
"6 	c #333367",
"7 	c #9EA2A5",
"8 	c #6E7085",
"9 	c #E7EDE7",
"0 	c #E1E7E1",
"a 	c #DAE2DB",
"b 	c #D3DDD4",
"c 	c #CCD7CD",
"d 	c #C4D1C6",
"e 	c #BDCCBF",
"f 	c #34346A",
"g 	c #A0A0A2",
"h 	c #323264",
"i 	c #D1DBD2",
"j 	c #040353",
"k 	c #030552",
"l 	c #BBCABD",
"m 	c #B4C5B6",
"n 	c #ADBFAF",
"o 	c #363169",
"p 	c #A0A29F",
"q 	c #B5DAF7",
"r 	c #323467",
"s 	c #ABBEAD",
"t 	c #A5B9A8",
"u 	c #333565",
"v 	c #7B4B00",
"w 	c #9FA0A5",
"x 	c #B7D9F4",
"y 	c #333369",
"z 	c #3D445E",
"A 	c #CC9806",
"B 	c #7B4A00",
"C 	c #9FA0A4",
"D 	c #B4D6F9",
"E 	c #A3D4FC",
"F 	c #010356",
"G 	c #DAC84C",
"H 	c #CF9807",
"I 	c #7D4802",
"J 	c #00024F",
"K 	c #5CB1F6",
"L 	c #060352",
"M 	c #372F2C",
"N 	c #DAC84A",
"O 	c #7E4800",
"P 	c #323369",
"Q 	c #39A3F7",
"R 	c #050450",
"S 	c #A09FA7",
"T 	c #DCCA4E",
"U 	c #A09FA4",
"V 	c #E7EBEE",
"W 	c #373064",
"X 	c #313366",
"Y 	c #343667",
"Z 	c #35322D",
"` 	c #9F9FA1",
" .	c #363466",
"..	c #353163",
"+.	c #7E4A00",
"@.	c #9F9F9F",
"#.	c #2F3569",
"$.	c #313467",
"          . + . @               ",
"      # $ % % % & * =           ",
"      - % % ; > , ' ) !         ",
"    ~ { ] ^ / ( _ : % <         ",
"    [ } | 1 2 3 4 5 % 6 7       ",
"    8 9 0 a b c d e % f g       ",
"    h % i j k l m n % o p       ",
"      f j q r s t % u v w       ",
"      j q x y r r r z A B C     ",
"    j q D E q q q F G G H I !   ",
"  J K K K K K K K L M G N A O # ",
"    P Q Q Q Q Q Q R S M G T A U ",
"    V h Q Q W X r Y   S M G Z ` ",
"         .Q ..          S +.@.  ",
"          #.$.                  ",
"                                "};
