/* XPM */
static const char *find_next_xpm[] = {
/* columns rows colors chars-per-pixel */
"16 16 141 2",
"n  c #313366",
"m  c #FCFEFD",
"<  c #EBF2EB",
"`  c #ABD7FC",
"h. c #363466",
"e. c #2F3664",
"l  c #CBD7CD",
"z  c #C6D0C5",
"o. c #6D87FE",
"X. c #040653",
"s. c #372F2C",
"e  c #F5F7F6",
"9. c #CB9809",
"I  c #A09EA3",
"#. c #6B8AFE",
"a  c #FFFFFD",
"%. c #6B8AFF",
"t  c #E9EFE5",
"%  c #FFFFFF",
"X  c #6C7386",
",. c #5C78F5",
"2. c #5C78F6",
"$  c #FDFFFC",
"$. c #698AFE",
"~  c #3F4360",
";  c #FDFFFE",
"Z  c #ACC0B4",
"O  c #6A7086",
"p. c #38302D",
"4  c #F6FBFE",
"8. c #DCCA4E",
"b  c #A19FA2",
"H  c #050454",
"/  c #7B4900",
"C  c #B6C2B6",
"j. c #A19FAC",
"+  c #A19CA2",
".  c #6D7487",
"z. c #333568",
"i. c #9F9FA7",
"8  c #E3ECE7",
"S  c #9DA29E",
"u  c #DEE5DD",
">. c #010753",
"1. c #5B79F5",
"q  c #33326C",
"a. c #D8CA4F",
"L  c #313562",
"O. c #688BFF",
"k  c #D2DDD7",
"y. c #5B76F7",
"B  c #3B3D6E",
":. c #9D9CA1",
"j  c #DCE2D8",
" . c #7C4A01",
"R  c #31326A",
".. c #A29DA3",
":  c #FCFAFB",
"A  c #363368",
"s  c #36336A",
"3. c #5E77F5",
"f  c #6E6F81",
"1  c #2F2F61",
"D  c #FFFEFA",
"3  c #FFFEFC",
"4. c #323967",
"c  c #FFFEFF",
"P  c #784D00",
"=. c #D9C846",
"0  c #FDFEF8",
"<. c #5C77F8",
"p  c #CCDACB",
"o  c #6A7587",
"g  c #E7EEE7",
"N  c #000857",
"h  c #E2E7E1",
"x  c #BBCEBB",
"W  c #ACD7FF",
"U  c #303666",
"5  c #F8F7FC",
"t. c #5A77F5",
";. c #7D4802",
"r  c #F1F3EE",
"r. c #372E63",
"9  c #E0E7E0",
"f. c #372E67",
"G  c #AAD7FE",
"_  c #AAD7FF",
"k. c #804C00",
"i  c #D4DFD9",
"d. c #9F9EA3",
"6. c #362C2B",
"J  c #A3B8A5",
"-  c #72748D",
"#  c #FEFCFF",
",  c #F2F7F3",
"V  c #BEC9C1",
"&. c #565388",
"2  c #9D9EA2",
"u. c #45446C",
"T  c #313469",
"v  c #31346B",
"|  c #CD9908",
"'  c #ABD8FF",
"[  c #1F1B65",
"*. c #DBCA48",
"Q  c #040754",
"0. c #A09FA4",
"}  c #DBC74C",
"w. c #34356B",
"w  c #6C7789",
"+. c #6B88FD",
"l. c #9E9F9A",
"{  c #D9CA4B",
"   c None",
"!  c #32356C",
"&  c #FDFDFB",
"@  c #717286",
"-. c #CE9706",
")  c #000758",
"M  c #D1DDD3",
"=  c #A1A3A2",
"]  c #ACD6FE",
"E  c #ACD6FF",
"F  c #353662",
"q. c #353666",
"7. c #DCC84B",
"5. c #A1A0A8",
"^  c #CC9709",
"(  c #9FA0A4",
"y  c #E3EAE2",
"@. c #6A89FE",
"K  c #FEFEFE",
">  c #F9F7F8",
"6  c #EDF2EC",
"g. c #5B7AF9",
"*  c #333371",
"x. c #2A3865",
"d  c #9DA0A5",
"7  c #EDEFEA",
"Y  c #313363",
/* pixels */
"        . X o O                 ",
"    + @ # $ % & * =             ",
"    - % ; : > , < 1 2           ",
"  . 3 4 5 6 7 8 9 0 q           ",
"  w e r t y u i p a s d         ",
"  f g h j k l z x c v b         ",
"  n m M N B V C Z 3 A S         ",
"    s D F G H J K L P I         ",
"  U Y T R E W Q ! ~ ^ / (       ",
"  ) _ ` _ ' ] ' [ { } |  ...    ",
"  X.o.O.+.@.#.$.%.&.*.=.-.;.:.  ",
"  >.,.<.1.2.3.<.4.5.6.7.8.9.0.  ",
"  q.w.e.r.t.y.u.    i.p.a.s.d.  ",
"        f.g.h.        j.k.l.    ",
"        z.x.                    ",
"                                "
};
