/* XPM */
static const char *goto_line_xpm[] = {
/* columns rows colors chars-per-pixel */
"16 16 125 2",
"U  c #545585",
"$. c #363466",
"2. c #DEDDE2",
"(  c #F2F0F1",
"W  c #F7F7FF",
";. c #D2DBE4",
"o  c #FAFEFD",
"i  c #5A5D70",
"L  c #95AC9A",
";  c #FFFFFB",
"l  c #040353",
"#  c #FFFFFD",
"5  c #343468",
"+  c #FFFFFF",
"a  c #F5F4F9",
"C  c #323465",
"[  c #46446C",
"3  c #FDFFFE",
"&  c #E9E9E9",
"s  c #3C3C6E",
"t  c #F8F8F8",
".. c #FDFCFA",
"8. c #020053",
"<  c #FDFCFF",
"N  c #050751",
"&. c #F6FBFE",
"v  c #AAC0AB",
"T  c #050452",
"q  c #F9FFF8",
"k  c #F9FCF5",
"#. c #CAD8E1",
"@. c #D6DAE6",
"_  c #94A793",
"9. c #080554",
":. c #C5D1DD",
"9  c #5C626E",
"m  c #5C6270",
"}  c #313562",
"c  c #E5E0E7",
"w. c #060553",
"j  c #FCFDFF",
">  c #757381",
"=. c #E8E7ED",
",  c #646A7A",
"r. c #060256",
"=  c #36336A",
"1. c #2F3569",
"P  c #95AB94",
" . c #343666",
"%  c #EBEBE9",
"`  c #8EAA91",
"w  c #FFFEFC",
"Y  c #6B89FF",
"7. c #09034D",
"0  c #FFFEFF",
"1  c #FDFEF6",
"S  c #FDFEF8",
"-. c #DFE3EC",
"~  c #EEEFF4",
"d  c #000857",
"u  c #FDFBFC",
"y  c #303668",
"p  c #F6F7F2",
"E  c #FBFBF9",
"X. c #F6F7F9",
"X  c #777B7E",
"q. c #050356",
"h  c #F9FEFA",
"'  c #8FA590",
"3. c #6D7083",
"f  c #FEFFFA",
"2  c #FEFFFF",
"r  c #F2F7F1",
"/  c #5B78F6",
"I  c #92A995",
"V  c #313467",
".  c #6B7086",
"+. c #DEE4F2",
"$  c #EDEDEB",
":  c #FCFCFA",
"R  c #F2F1EF",
"A  c #FCFCFC",
"8  c #FAFFF9",
"M  c #E9F6EC",
",. c #BEC9DB",
"^  c #343868",
"g  c #586474",
"<. c #2D3768",
"Q  c #FAF9F5",
"-  c #9EA2A1",
"0. c #02044F",
"*. c #E9EDEC",
"Z  c #323568",
"   c None",
"5. c #020457",
"F  c #FDFDFB",
"J  c #FDFDFD",
"K  c #91AA8C",
"B  c #323268",
"e. c #00044E",
"H  c #000758",
"6. c #050855",
"!  c #F6F9F2",
"7  c #FBFDF8",
"x  c #353664",
"n  c #596575",
"4  c #FBFDFC",
"]  c #E7EAEF",
")  c #8FAD95",
"G  c #1E1C65",
"6  c #A1A0A6",
"o. c #E7EAF1",
"{  c #372D62",
"*  c #ECEBF1",
"O. c #E7E7F3",
"%. c #353066",
"|  c #333669",
"@  c #FEFEFC",
"e  c #F4F3F1",
"O  c #FEFEFE",
"D  c #FEFEFF",
"b  c #6E7C7F",
"z  c #90ACFF",
">. c #C0C8D3",
"4. c #080053",
/* pixels */
"                                ",
"  . . . . . . . . . . . X       ",
"  . o O O + @ # $ % & * = -     ",
"  . ; : > , < 1 # 2 3 4 5 6     ",
"  . : 7 8 9 0 q w e r t y 6     ",
"  . u 8 w i : ; @ p a s d 6     ",
"  . u f O g h f j k l z x 6 c   ",
"  . O v b n m M # N z z B V C Z ",
"  . A S D F w + G z z z z z z H ",
"  . J K L P I U Y Y Y Y Y Y Y T ",
"  . R E W Q ! ~ ^ / / / / / / N ",
"  . ( ) _ ` ` ' ] [ / / { } |  .",
"  . 4 ..X.o.O.+.@.#.$./ %.6     ",
"  . &.*.=.-.;.#.:.>.,.<.1.6     ",
"2.3.4.5.6.7.8.9.0.q.w.e.r.6     ",
"    6 6 6 6 6 6 6 6 6 6 6 6     "
};
