/* XPM */
static const char *goto_last_edit_xpm[] = {
/* columns rows colors chars-per-pixel */
"16 16 184 2",
"R  c #363767",
"x  c #CDAA46",
"W. c #060354",
"O. c #ABD7FE",
"v. c #DCE3EB",
"o. c #1D1D63",
"&  c #6E7386",
"D. c #CBDADF",
"^  c #DBC94B",
"0  c #372F2D",
"O  c #69C011",
"C  c #BC8C04",
"B  c #FFFFFB",
"]. c #A09EA3",
"7. c #FFFFFD",
"<. c #6B8AFE",
"u. c #FFFFFF",
"=. c #8EA88D",
"}  c #FAFBFF",
"e  c #FFFCF9",
"$  c #6C7385",
"@  c #6C7386",
"q. c #5C78F6",
"L  c #FDFFF7",
"A. c #DFE4E8",
"K  c #FDFFF9",
"=  c #BA8C05",
"8. c #FDFFFA",
"C. c #EEF0EF",
"3. c #698AFD",
"4  c #FDFFFC",
"1. c #698AFE",
"'  c #323467",
"S  c #3A302F",
"m. c #373567",
"d. c #5A78F4",
"-  c #CEA845",
"!. c #000352",
"l. c #FBFFFC",
"(  c #050754",
"1  c #FBFFFE",
">  c #6F7488",
"D  c #3A3C6D",
"i  c #BD8D05",
"d  c #A89DA3",
"R. c #050452",
"_. c #A19FA4",
"W  c #6F7186",
"h. c #353569",
"E  c #9A9E9F",
"k. c #6D7484",
"_  c #AAD5FF",
"%  c #6D7486",
"y. c #6D7487",
"/  c #363030",
"7  c #BB8D06",
"[  c #333568",
"Q. c #030456",
"b. c #D6DAE3",
"p. c #8DA993",
"P. c #030154",
"r. c #5B79F5",
"g. c #313562",
"8  c #CFA946",
"{  c #707589",
"|  c #FCFDFF",
"+. c #ABD6FF",
"K. c #2F3569",
";. c #90A793",
"I  c #DBC848",
"4. c #040555",
"@. c #A9D9FF",
"n. c #CDD3E1",
"6  c #7A4A00",
"M. c #5E77F6",
"&. c #FFFEF9",
"Z  c #CBA945",
" . c #FFFEFC",
"~  c #CBA947",
"P  c #BC8B08",
"`. c #A09DA4",
"F. c #C6CFDE",
"l  c #FFFBFF",
"H. c #BACAD7",
"J  c #FDFEF9",
"2  c #FDFEFF",
"s. c #46436E",
"6. c #FDFBFC",
"[. c #9CA0A3",
"0. c #5A77F5",
"L. c #A1A1A1",
"}. c #9C9DA1",
"V. c #F6FAFB",
"9. c #353768",
"-. c #91A898",
".  c #7B4B00",
"u  c #7B4B03",
"T  c #AAD7FE",
"p  c #CCAA48",
"z. c #F6F7FC",
":. c #515884",
"b  c #F9FEF8",
"a. c #E5EBEB",
"i. c #8FA892",
"j. c #333766",
"U. c #030655",
"T. c #050057",
"V  c #794B00",
"f. c #352E62",
"w  c #FEFFF9",
"Q  c #FEFFFA",
"{. c #9F9EA3",
"n  c #A4A2A5",
"J. c #2C3667",
",  c #FEFFFF",
"5. c #6B768A",
"!  c #794803",
"+  c #6B768C",
"<  c #FEFCFD",
"5  c #FEFCFF",
";  c #4FA303",
"w. c #5B78F6",
"r  c #FCFFF8",
"). c #9D9EA0",
"e. c #5B78FA",
"U  c #39302B",
"]  c #313469",
"X  c #12660E",
"t  c #FCFCFA",
")  c #ABD8FF",
"v  c #392D31",
"#  c #70718D",
"q  c #6E7484",
"*. c #90A994",
"o  c #52A402",
"x. c #EBF0F4",
"~. c #0B0253",
"Z. c #E6E9EE",
"z  c #BC8D09",
"A  c #DBC74C",
">. c #6B88FE",
"j  c #FFFDFF",
"X. c #35302D",
"Y  c #020451",
"/. c #9E9FA3",
"N. c #342F67",
"^. c #9E9FA4",
"   c None",
"B. c #9E9CA1",
"`  c #323266",
"N  c #FDFDFD",
"y  c #FDFDFF",
"$. c #000758",
"#. c #ACD6FF",
"I. c #000151",
"h  c #FBFDFA",
"m  c #6F7285",
"|. c #A1A0A6",
"Y. c #05024F",
"H  c #6D7582",
"2. c #6C89FE",
",. c #6C89FF",
"G. c #C2CBD4",
"s  c #36312D",
"%. c #6D7285",
"'. c #9FA0A4",
"c  c #DAC84A",
"*  c #6D7286",
"(. c #9FA0A5",
"c. c #E5EAF0",
"9  c #DAC84C",
"a  c #DAC546",
"3  c #FEFEFC",
"g  c #FEFEFE",
"M  c #FEFEFF",
"F  c #010856",
"E. c #01054F",
"f  c #6B7285",
"G  c #9DA0A5",
".. c #7C4E01",
"S. c #D4DBE5",
"t. c #060650",
"k  c #FCFEF9",
":  c #12680F",
/* pixels */
"                      . X o O   ",
"  + @ # $ % & @ $ * . = - ; :   ",
"  > , < 1 2 3 4 5 6 7 8 9 0     ",
"  q w e r , t y u i p a s d     ",
"  f g h j k l 6 z x c v b n     ",
"  m M N B , V C Z A S D F G     ",
"  H J K L 6 P Z I U Y T R E     ",
"  W Q j M ! ~ ^ / ( ) _ ` ' ] [ ",
"  { } |  ...u X.o.O.T ) +.@.#.$.",
"  %.&.*.=.-.;.:.>.,.<.1.2.,.3.4.",
"  5.6.h 7.J 8.N 9.0.0.q.w.e.r.t.",
"  y.u.i.i.p.i.;.a.s.d.q.f.g.h.j.",
"  k.j l.z.x.c.v.b.n.m.M.N.B.    ",
"  f V.C.Z.A.S.D.F.G.H.J.K.L.    ",
"  * P.I.U.Y.T.R.E.W.Q.!.~.^.    ",
"    /.(.)._.`.'.].[.{.{.}.|.    "
};
